<?xml version="1.0" encoding="UTF-8" standalone="no"?>
<!-- Created with Inkscape (http://www.inkscape.org/) -->

<svg
   width="1374.8672"
   height="188.97636"
   viewBox="0 0 363.76694 49.999996"
   version="1.1"
   id="svg5"
   xmlns="http://www.w3.org/2000/svg"
   xmlns:svg="http://www.w3.org/2000/svg">
  <defs
     id="defs2" />
  <g
     id="g26306"
     transform="translate(-5756.7317,-41.61787)">
    <g
       id="g1"
       transform="matrix(1.6666665,0,0,1.6666665,5811.0278,-292.76788)">
      <path
         style="font-weight:200;font-size:42.735px;font-family:Trueno;-inkscape-font-specification:'Trueno Ultra-Light';letter-spacing:21.4317px;fill:#ffffff;stroke-width:0.200321"
         d="m 14.763311,230.58873 h 1.79487 V 203.452 l 19.91451,27.13673 h 2.094015 v -29.87177 h -1.752135 v 27.13673 L 16.857326,200.71696 h -2.094015 z m 50.705211,0 h 1.96581 l 3.84615,-8.50427 h 17.478616 l 3.888885,8.50427 h 1.96581 L 80.938592,200.71696 h -1.923075 z m 6.58119,-10.29914 7.905975,-17.52135 7.991446,17.52135 z m 45.576948,6.02564 c 2.60683,2.5641 6.66666,4.31623 10.64101,4.31623 6.23931,0 10.38461,-2.99145 10.38461,-7.60683 0.0855,-11.02563 -17.47862,-6.32478 -17.47862,-15.42733 0,-3.11966 3.07692,-5.08547 7.82051,-5.08547 2.5641,0 5.59828,0.7265 7.8205,2.17949 l 0.81197,-1.62393 c -2.22222,-1.45299 -5.51282,-2.4359 -8.547,-2.4359 -5.89743,0 -9.82905,2.77778 -9.82905,7.09401 0,10.76922 17.56408,5.9829 17.47861,15.34187 0,3.50427 -3.29059,5.72649 -8.41879,5.72649 -3.50427,0 -7.30769,-1.53846 -9.74358,-4.05983 z m 47.02999,0 c 2.60684,2.5641 6.66666,4.31623 10.64102,4.31623 6.23931,0 10.3846,-2.99145 10.3846,-7.60683 0.0855,-11.02563 -17.47861,-6.32478 -17.47861,-15.42733 0,-3.11966 3.07692,-5.08547 7.8205,-5.08547 2.5641,0 5.59829,0.7265 7.82051,2.17949 l 0.81196,-1.62393 c -2.22222,-1.45299 -5.51281,-2.4359 -8.547,-2.4359 -5.89743,0 -9.82905,2.77778 -9.82905,7.09401 0,10.76922 17.56409,5.9829 17.47862,15.34187 0,3.50427 -3.2906,5.72649 -8.4188,5.72649 -3.50427,0 -7.30768,-1.53846 -9.74358,-4.05983 z"
         id="text1"
         aria-label="NASS" />
    </g>
    <path
       id="path1"
       style="color:#000000;fill:#ffffff;stroke-width:0.118034;-inkscape-stroke:none"
       d="m 5768.4178,41.617868 c -2.8155,4e-5 -5.6313,1.07225 -7.7757,3.21663 l -0.5878,0.58782 c -0.6741,0.67416 -1.2419,1.41488 -1.7041,2.20087 -1.0258,1.67111 -1.6184,3.63561 -1.6184,5.73674 v 26.99422 c 0,6.06523 4.9313,10.99663 10.9965,10.99663 h 0.8313 c 6.0251,0 10.9303,-4.86648 10.9952,-10.87641 l 7.102,7.10191 c 0.3695,0.42337 0.7701,0.81865 1.1996,1.18126 3.5846,3.26767 8.8205,3.7351 12.8792,1.40473 2.8982,-1.4724 5.0591,-4.18993 5.7743,-7.44605 0.3191,-1.27945 0.4041,-2.60491 0.258,-3.90961 v -25.44668 c 0,-6.06521 -4.9314,-10.99663 -10.9966,-10.99663 h -0.8315 c -5.8137,0 -10.5827,4.53168 -10.9684,10.24895 l -7.7779,-7.77788 c -2.1443,-2.14436 -4.96,-3.21654 -7.7757,-3.2165 z m -0.6895,3.8524 h 0.8313 c 4.3979,0 7.8897,3.4919 7.8897,7.88966 v 19.61509 l -14.1983,-14.19826 c -2.8155,-2.81558 -3.0815,-7.13011 -0.7985,-10.22924 1.4346,-1.87738 3.6991,-3.07725 6.2758,-3.07725 z m 27.2115,0 h 0.8315 c 4.3977,0 7.8897,3.4919 7.8897,7.88966 v 18.94382 c -0.013,-0.0132 -0.025,-0.0269 -0.038,-0.04 l -16.5728,-16.57278 v -2.33104 c 0,-4.39775 3.4919,-7.88966 7.8896,-7.88966 z m -26.7958,0.73958 c -3.7363,0 -6.793,3.05667 -6.793,6.79295 0,3.73629 3.0567,6.79302 6.793,6.79302 3.7362,0 6.793,-3.05673 6.793,-6.79302 0,-3.73628 -3.0568,-6.79295 -6.793,-6.79295 z m 0,2.6002 c 2.3309,0 4.1929,1.86179 4.1929,4.19275 0,2.33096 -1.862,4.19282 -4.1929,4.19282 -2.331,0 -4.1927,-1.86186 -4.1927,-4.19282 0,-2.33096 1.8617,-4.19275 4.1927,-4.19275 z m 11.3799,3.74828 4.4192,4.41922 v 23.3766 c 0,0.0388 0,0.0775 0,0.11613 l -4.3882,-4.38829 v -22.72206 c 0,-0.26987 -0.014,-0.53655 -0.032,-0.8016 z m 7.5263,7.52619 14.376,14.376 c 1.2397,1.2398 1.9836,2.7705 2.2348,4.35988 v 1.53375 c 0,0.67088 -0.082,1.32025 -0.2356,1.9398 -0.3655,1.21173 -1.0316,2.35668 -1.9994,3.32441 l -0.5879,0.58782 c -0.5205,0.52063 -1.0932,0.95201 -1.6992,1.29831 -1.0185,0.47425 -2.1584,0.73958 -3.3676,0.73958 h -0.8315 c -1.7682,0 -3.3892,-0.56538 -4.6964,-1.52625 -0.1933,-0.1603 -0.3814,-0.33015 -0.5628,-0.51164 l -0.9332,-0.93311 c -1.0641,-1.34372 -1.6972,-3.04871 -1.6972,-4.91892 z m -27.2117,0.66223 c 0.072,0.0758 0.1415,0.15274 0.2157,0.22697 l 16.3951,16.39522 v 2.98521 c 0,4.39776 -3.4918,7.88992 -7.8897,7.88992 h -0.8313 c -4.3977,0 -7.8898,-3.49216 -7.8898,-7.88992 z m 35.3392,12.34228 c -3.7364,0 -6.7933,3.05673 -6.7933,6.79302 0,3.73628 3.0569,6.79295 6.7933,6.79295 3.7363,0 6.7929,-3.05667 6.7929,-6.79295 0,-3.73629 -3.0566,-6.79302 -6.7929,-6.79302 z m 0,2.6002 c 2.3309,0 4.1926,1.86185 4.1926,4.19282 0,2.33095 -1.8617,4.19275 -4.1926,4.19275 -2.331,0 -4.1928,-1.8618 -4.1928,-4.19275 0,-2.33097 1.8618,-4.19282 4.1928,-4.19282 z" />
  </g>
</svg>
